<mxfile host="app.diagrams.net" modified="2023-08-25T14:26:20.056Z" agent="Mozilla/5.0 (X11; Linux x86_64; rv:109.0) Gecko/20100101 Firefox/112.0" version="21.6.9" etag="GYSeve_QyV5BBUkGtRkI" type="github">
  <diagram name="PÃ¡gina-1" id="UJ4xg9c9-jEYiLPK3qz1">
    <mxGraphModel>
      <root>
        <mxCell id="0" />
        <mxCell id="1" parent="0" />
      </root>
    </mxGraphModel>
  </diagram>
</mxfile>
